<?xml version="1.0" standalone="no"?>
<!DOCTYPE svg PUBLIC "-//W3C//DTD SVG 20010904//EN"
 "http://www.w3.org/TR/2001/REC-SVG-20010904/DTD/svg10.dtd">
<svg version="1.0" xmlns="http://www.w3.org/2000/svg"
 width="96.000000pt" height="96.000000pt" viewBox="0 0 96.000000 96.000000"
 preserveAspectRatio="xMidYMid meet">
<metadata>
Created by potrace 1.11, written by Peter Selinger 2001-2013
</metadata>
<g transform="translate(0.000000,96.000000) scale(0.100000,-0.100000)"
fill="#000000" stroke="none">
<path d="M597 830 c-21 -22 -38 -30 -63 -30 -32 0 -34 -2 -34 -33 0 -23 -9
-42 -29 -63 l-30 -30 30 -32 c21 -22 29 -41 29 -66 0 -34 2 -36 35 -36 26 0
42 -8 64 -30 l29 -30 32 30 c23 21 42 30 66 30 32 0 34 2 34 35 0 26 8 42 31
64 l31 30 -31 32 c-22 23 -31 42 -31 65 0 32 -2 34 -35 34 -25 0 -43 8 -65 30
-17 17 -32 30 -33 30 -1 -1 -15 -14 -30 -30z"/>
<path d="M202 422 c-30 -10 -53 -20 -52 -24 1 -9 35 -88 62 -146 34 -73 109
-94 160 -45 l28 26 20 -44 c11 -24 20 -54 20 -66 0 -16 6 -23 20 -23 16 0 20
7 20 30 0 29 24 90 35 90 3 0 14 -9 25 -20 28 -28 82 -26 113 3 13 12 39 46
56 75 18 28 37 52 42 52 21 0 -4 21 -48 41 -25 11 -69 23 -98 26 -48 5 -56 3
-79 -20 -27 -27 -34 -65 -15 -84 7 -7 1 -19 -21 -42 -17 -17 -33 -31 -35 -31
-2 0 -13 13 -25 30 -20 28 -20 32 -6 52 19 27 20 48 5 82 -25 54 -122 70 -227
38z"/>
</g>
</svg>
